<mxfile host="app.diagrams.net" modified="2022-04-29T21:15:52.667Z" agent="5.0 (Windows NT 10.0; Win64; x64) AppleWebKit/537.36 (KHTML, like Gecko) Chrome/100.0.4896.127 Safari/537.36 Edg/100.0.1185.50" etag="tBlG29ft0c0A5OpKKKxW" version="17.4.6" type="github">
  <diagram id="TtP-CfeIA3QvMqHtvhTb" name="Page-1">
    <mxGraphModel dx="439" dy="1587" grid="1" gridSize="10" guides="1" tooltips="1" connect="1" arrows="1" fold="1" page="1" pageScale="1" pageWidth="827" pageHeight="1169" math="0" shadow="0">
      <root>
        <mxCell id="0" />
        <mxCell id="1" parent="0" />
        <mxCell id="HzS_BnhPK9T8P5cMP2ur-19" value="Address" style="swimlane;" parent="1" vertex="1">
          <mxGeometry x="20" y="120" width="200" height="200" as="geometry" />
        </mxCell>
        <mxCell id="HzS_BnhPK9T8P5cMP2ur-32" value="*address_id&lt;br&gt;address&lt;br&gt;address2&lt;br&gt;district&lt;br&gt;city_id&lt;br&gt;postal_code&lt;br&gt;phone&lt;br&gt;last_update" style="text;html=1;align=left;verticalAlign=middle;resizable=0;points=[];autosize=1;strokeColor=none;fillColor=none;" parent="HzS_BnhPK9T8P5cMP2ur-19" vertex="1">
          <mxGeometry x="60" y="60" width="80" height="120" as="geometry" />
        </mxCell>
        <mxCell id="HzS_BnhPK9T8P5cMP2ur-21" value="Country" style="swimlane;startSize=23;" parent="1" vertex="1">
          <mxGeometry x="20" y="584" width="200" height="160" as="geometry" />
        </mxCell>
        <mxCell id="HzS_BnhPK9T8P5cMP2ur-35" value="*Country_id&lt;br&gt;country&lt;br&gt;last_update" style="text;html=1;align=left;verticalAlign=middle;resizable=0;points=[];autosize=1;strokeColor=none;fillColor=none;" parent="HzS_BnhPK9T8P5cMP2ur-21" vertex="1">
          <mxGeometry x="60" y="70" width="80" height="50" as="geometry" />
        </mxCell>
        <mxCell id="HzS_BnhPK9T8P5cMP2ur-30" value="Library" style="swimlane;startSize=23;" parent="1" vertex="1">
          <mxGeometry x="600" y="-110" width="200" height="200" as="geometry" />
        </mxCell>
        <mxCell id="HzS_BnhPK9T8P5cMP2ur-18" value="Customer" style="swimlane;align=center;" parent="1" vertex="1">
          <mxGeometry x="20" y="-150" width="200" height="260" as="geometry" />
        </mxCell>
        <mxCell id="HzS_BnhPK9T8P5cMP2ur-31" value="*customer_id&lt;br&gt;store_id&lt;br&gt;first_name&lt;br&gt;last_name&lt;br&gt;email&lt;br&gt;address_id&lt;br&gt;activebool&lt;br&gt;create_date&lt;br&gt;last_update&lt;br&gt;active&lt;br&gt;&lt;font color=&quot;#ffff33&quot;&gt;age&lt;br&gt;email&lt;br&gt;password&lt;br&gt;telephone&lt;/font&gt;" style="text;html=1;align=left;verticalAlign=middle;resizable=0;points=[];autosize=1;strokeColor=none;fillColor=none;rotation=0;" parent="HzS_BnhPK9T8P5cMP2ur-18" vertex="1">
          <mxGeometry x="55" y="40" width="90" height="200" as="geometry" />
        </mxCell>
        <mxCell id="HzS_BnhPK9T8P5cMP2ur-24" value="Devices" style="swimlane;startSize=23;" parent="1" vertex="1">
          <mxGeometry x="270" y="330" width="210" height="170" as="geometry" />
        </mxCell>
        <mxCell id="pAm7fmLb9yArs0JBZIK8-22" value="television&lt;br&gt;telephone&lt;br&gt;tablet&lt;br&gt;computer&lt;br&gt;laptop&lt;br&gt;game_console&lt;br&gt;streaming_device&lt;br&gt;decoder" style="text;html=1;align=left;verticalAlign=middle;resizable=0;points=[];autosize=1;strokeColor=none;fillColor=none;fontColor=#FFFF33;" vertex="1" parent="HzS_BnhPK9T8P5cMP2ur-24">
          <mxGeometry x="60" y="40" width="110" height="120" as="geometry" />
        </mxCell>
        <mxCell id="HzS_BnhPK9T8P5cMP2ur-20" value="City" style="swimlane;startSize=23;" parent="1" vertex="1">
          <mxGeometry x="20" y="360" width="200" height="170" as="geometry" />
        </mxCell>
        <mxCell id="HzS_BnhPK9T8P5cMP2ur-33" value="city_id&lt;br&gt;city&lt;br&gt;country_id&lt;br&gt;last_update" style="text;html=1;align=left;verticalAlign=middle;resizable=0;points=[];autosize=1;strokeColor=none;fillColor=none;" parent="HzS_BnhPK9T8P5cMP2ur-20" vertex="1">
          <mxGeometry x="60" y="60" width="80" height="60" as="geometry" />
        </mxCell>
        <mxCell id="HzS_BnhPK9T8P5cMP2ur-22" value="Subscription" style="swimlane;startSize=23;" parent="1" vertex="1">
          <mxGeometry x="270" y="-150" width="210" height="170" as="geometry" />
        </mxCell>
        <mxCell id="pAm7fmLb9yArs0JBZIK8-20" value="*subscription_id&lt;br&gt;plan&lt;br&gt;last_update" style="text;html=1;align=left;verticalAlign=middle;resizable=0;points=[];autosize=1;strokeColor=none;fillColor=none;fontColor=#FFFF33;" vertex="1" parent="HzS_BnhPK9T8P5cMP2ur-22">
          <mxGeometry x="55" y="60" width="100" height="50" as="geometry" />
        </mxCell>
        <mxCell id="HzS_BnhPK9T8P5cMP2ur-23" value="Payment" style="swimlane;startSize=23;" parent="1" vertex="1">
          <mxGeometry x="270" y="70" width="210" height="200" as="geometry" />
        </mxCell>
        <mxCell id="HzS_BnhPK9T8P5cMP2ur-36" value="*payment_id&lt;br&gt;customer_id&lt;br&gt;&lt;div&gt;&lt;span&gt;staff_id&lt;/span&gt;&lt;/div&gt;rental_id&lt;br&gt;amount&lt;br&gt;payment_date&lt;br&gt;&lt;div&gt;&lt;font color=&quot;#ffff33&quot;&gt;payment_method&lt;/font&gt;&lt;/div&gt;&lt;div&gt;&lt;br&gt;&lt;/div&gt;" style="text;html=1;align=left;verticalAlign=middle;resizable=0;points=[];autosize=1;strokeColor=none;fillColor=none;" parent="HzS_BnhPK9T8P5cMP2ur-23" vertex="1">
          <mxGeometry x="60" y="45" width="110" height="120" as="geometry" />
        </mxCell>
        <mxCell id="pAm7fmLb9yArs0JBZIK8-1" value="Behaviours" style="swimlane;startSize=23;" vertex="1" parent="1">
          <mxGeometry x="309" y="584" width="210" height="200" as="geometry" />
        </mxCell>
        <mxCell id="pAm7fmLb9yArs0JBZIK8-2" value="Device&lt;br&gt;Weekdays Visualizations&lt;br&gt;Weekend Visualizations&lt;br&gt;Days&lt;br&gt;Hour per Day&lt;br&gt;First Show/Movie watched&lt;br&gt;Searchs&lt;br&gt;Likes&lt;br&gt;Watched" style="text;html=1;align=left;verticalAlign=middle;resizable=0;points=[];autosize=1;strokeColor=none;fillColor=none;" vertex="1" parent="pAm7fmLb9yArs0JBZIK8-1">
          <mxGeometry x="20" y="45" width="160" height="130" as="geometry" />
        </mxCell>
        <object label="Owned Library" id="pAm7fmLb9yArs0JBZIK8-3">
          <mxCell style="swimlane;startSize=23;" vertex="1" parent="1">
            <mxGeometry x="600" y="130" width="200" height="200" as="geometry">
              <mxRectangle x="730" y="280" width="70" height="23" as="alternateBounds" />
            </mxGeometry>
          </mxCell>
        </object>
        <object label="Licenced Library" id="pAm7fmLb9yArs0JBZIK8-4">
          <mxCell style="swimlane;startSize=23;" vertex="1" parent="1">
            <mxGeometry x="600" y="360" width="200" height="200" as="geometry">
              <mxRectangle x="730" y="280" width="70" height="23" as="alternateBounds" />
            </mxGeometry>
          </mxCell>
        </object>
        <object label="film" id="pAm7fmLb9yArs0JBZIK8-6">
          <mxCell style="swimlane;startSize=23;" vertex="1" parent="1">
            <mxGeometry x="900" y="-110" width="200" height="200" as="geometry">
              <mxRectangle x="730" y="280" width="70" height="23" as="alternateBounds" />
            </mxGeometry>
          </mxCell>
        </object>
        <object label="Shows" id="pAm7fmLb9yArs0JBZIK8-7">
          <mxCell style="swimlane;startSize=23;" vertex="1" parent="1">
            <mxGeometry x="900" y="140" width="200" height="200" as="geometry">
              <mxRectangle x="730" y="280" width="70" height="23" as="alternateBounds" />
            </mxGeometry>
          </mxCell>
        </object>
        <object label="Category" id="pAm7fmLb9yArs0JBZIK8-8">
          <mxCell style="swimlane;startSize=23;" vertex="1" parent="1">
            <mxGeometry x="890" y="380" width="200" height="170" as="geometry">
              <mxRectangle x="730" y="280" width="70" height="23" as="alternateBounds" />
            </mxGeometry>
          </mxCell>
        </object>
        <mxCell id="pAm7fmLb9yArs0JBZIK8-9" value="*category_id&lt;br&gt;name&lt;br&gt;last_update" style="text;html=1;align=center;verticalAlign=middle;resizable=0;points=[];autosize=1;strokeColor=none;fillColor=none;" vertex="1" parent="pAm7fmLb9yArs0JBZIK8-8">
          <mxGeometry x="60" y="70" width="80" height="50" as="geometry" />
        </mxCell>
        <object label="Film_Category" id="pAm7fmLb9yArs0JBZIK8-10">
          <mxCell style="swimlane;startSize=23;" vertex="1" parent="1">
            <mxGeometry x="890" y="590" width="200" height="170" as="geometry">
              <mxRectangle x="730" y="280" width="70" height="23" as="alternateBounds" />
            </mxGeometry>
          </mxCell>
        </object>
        <mxCell id="pAm7fmLb9yArs0JBZIK8-11" value="*category_id&lt;br&gt;name&lt;br&gt;last_update" style="text;html=1;align=center;verticalAlign=middle;resizable=0;points=[];autosize=1;strokeColor=none;fillColor=none;" vertex="1" parent="pAm7fmLb9yArs0JBZIK8-10">
          <mxGeometry x="60" y="70" width="80" height="50" as="geometry" />
        </mxCell>
        <object label="Language" id="pAm7fmLb9yArs0JBZIK8-12">
          <mxCell style="swimlane;startSize=23;" vertex="1" parent="1">
            <mxGeometry x="890" y="800" width="200" height="170" as="geometry">
              <mxRectangle x="730" y="280" width="70" height="23" as="alternateBounds" />
            </mxGeometry>
          </mxCell>
        </object>
        <mxCell id="pAm7fmLb9yArs0JBZIK8-13" value="*language_id&lt;br&gt;name&lt;br&gt;last_update" style="text;html=1;align=center;verticalAlign=middle;resizable=0;points=[];autosize=1;strokeColor=none;fillColor=none;" vertex="1" parent="pAm7fmLb9yArs0JBZIK8-12">
          <mxGeometry x="55" y="70" width="90" height="50" as="geometry" />
        </mxCell>
        <object label="Staff" id="pAm7fmLb9yArs0JBZIK8-14">
          <mxCell style="swimlane;startSize=23;" vertex="1" parent="1">
            <mxGeometry x="580" y="770" width="200" height="170" as="geometry">
              <mxRectangle x="730" y="280" width="70" height="23" as="alternateBounds" />
            </mxGeometry>
          </mxCell>
        </object>
        <mxCell id="pAm7fmLb9yArs0JBZIK8-15" value="*language_id&lt;br&gt;name&lt;br&gt;last_update" style="text;html=1;align=center;verticalAlign=middle;resizable=0;points=[];autosize=1;strokeColor=none;fillColor=none;" vertex="1" parent="pAm7fmLb9yArs0JBZIK8-14">
          <mxGeometry x="55" y="70" width="90" height="50" as="geometry" />
        </mxCell>
        <object label="film_actor" id="pAm7fmLb9yArs0JBZIK8-16">
          <mxCell style="swimlane;startSize=23;" vertex="1" parent="1">
            <mxGeometry x="1180" y="520" width="200" height="170" as="geometry">
              <mxRectangle x="730" y="280" width="70" height="23" as="alternateBounds" />
            </mxGeometry>
          </mxCell>
        </object>
        <mxCell id="pAm7fmLb9yArs0JBZIK8-17" value="*language_id&lt;br&gt;name&lt;br&gt;last_update" style="text;html=1;align=center;verticalAlign=middle;resizable=0;points=[];autosize=1;strokeColor=none;fillColor=none;" vertex="1" parent="pAm7fmLb9yArs0JBZIK8-16">
          <mxGeometry x="55" y="70" width="90" height="50" as="geometry" />
        </mxCell>
        <object label="actor" id="pAm7fmLb9yArs0JBZIK8-18">
          <mxCell style="swimlane;startSize=23;" vertex="1" parent="1">
            <mxGeometry x="1160" y="300" width="200" height="170" as="geometry">
              <mxRectangle x="730" y="280" width="70" height="23" as="alternateBounds" />
            </mxGeometry>
          </mxCell>
        </object>
        <mxCell id="pAm7fmLb9yArs0JBZIK8-19" value="*language_id&lt;br&gt;name&lt;br&gt;last_update" style="text;html=1;align=center;verticalAlign=middle;resizable=0;points=[];autosize=1;strokeColor=none;fillColor=none;" vertex="1" parent="pAm7fmLb9yArs0JBZIK8-18">
          <mxGeometry x="55" y="70" width="90" height="50" as="geometry" />
        </mxCell>
      </root>
    </mxGraphModel>
  </diagram>
</mxfile>
